:SAMPLES-PER-SECOND 30
:FRAME-RANGE 1-1390
:FULLY-SPECIFIED
:DEGREES
869
root  48.0019 35.9321 7.38764 178.888 59.557 -175.786
RightUpLeg  -83.1677 -14.7213 63.3474
RightLeg  127.241 3.02778 -3.0893
RightFoot  -35.1981 0.364854 2.86434
RightToes  6.35937e-011 1.2921e-014 -6.02303e-014
Spine  15.5786 -1.22822 5.29755
Spine1  -1.62131 2.28904 -4.10001
HEad  0.522596 31.3043 -14.8761
LeftShoulder1  2.91396 -9.213 -16.8397
LeftArm  42.272 -18.5046 -66.9493
LeftForeArm  27.1021 -2.31157 -18.0883
LeftHand  -0.000717736 6.40896 3.41912
RightShoulder  3.08264 6.96517 23.9701
RightArm  -0.716077 32.5665 93.4062
RightForeArm  122.764 -3.50616 7.05852
RightHand  1.79562 -20.3376 -14.1433
LeftUpLeg  -17.1534 -17.163 -13.0681
LeftLeg  47.6459 8.91593 10.7613
LeftFoot  -19.9124 0.673095 7.37174
LeftToes  4.52251e-011 4.07896e-011 -5.42348e-012
870
root  49.2428 37.239 7.03906 -179.093 60.04 -173.229
RightUpLeg  -82.9332 -13.8631 63.8347
RightLeg  126.964 2.86882 -2.9271
RightFoot  -34.5888 0.438118 3.27684
RightToes  6.35937e-011 1.2921e-014 -6.02303e-014
Spine  14.1186 -0.387992 6.26345
Spine1  -1.62799 3.13006 -5.21227
HEad  5.04913 31.3856 -10.1169
LeftShoulder1  2.92202 -8.7926 -17.7919
LeftArm  49.8135 -18.7321 -67.0643
LeftForeArm  21.8866 -4.23229 -18.1223
LeftHand  -0.00164133 6.45657 3.2186
RightShoulder  3.12799 7.10507 24.0055
RightArm  -1.61157 31.9176 91.9648
RightForeArm  121.405 -3.57081 7.08104
RightHand  1.94503 -20.1677 -15.4079
LeftUpLeg  -12.3915 -16.373 -10.9488
LeftLeg  42.2753 8.248 8.35835
LeftFoot  -15.9979 0.298031 4.96155
LeftToes  4.52251e-011 4.07896e-011 -5.42348e-012
871
root  50.3242 38.3564 6.62778 -179.018 58.5607 -172.173
RightUpLeg  -83.6781 -13.5596 61.9668
RightLeg  128.263 2.29116 -2.09872
RightFoot  -34.926 0.471393 3.39938
RightToes  6.35937e-011 1.2921e-014 -6.02303e-014
Spine  13.8079 -0.575399 5.68622
Spine1  -2.06844 2.80657 -5.00653
HEad  9.15181 31.8723 -6.0747
LeftShoulder1  3.02825 -9.06455 -18.1464
LeftArm  53.4356 -19.4443 -68.3658
LeftForeArm  18.5464 -5.13715 -18.1615
LeftHand  -0.00152276 6.63884 2.88329
RightShoulder  3.10857 7.19051 23.5518
RightArm  -2.40229 32.2952 92.0244
RightForeArm  120.553 -3.4946 6.37306
RightHand  1.73791 -19.6794 -14.3266
LeftUpLeg  -9.51673 -15.776 -9.75001
LeftLeg  40.4661 5.82578 5.70263
LeftFoot  -9.16232 0.0394416 0.821855
LeftToes  4.52251e-011 4.07896e-011 -5.42348e-012
872
root  51.2716 39.2548 6.3272 -179.068 56.6745 -171.57
RightUpLeg  -84.1472 -12.5234 60.1909
RightLeg  129.113 3.60261 -3.52367
RightFoot  -35.8164 0.453599 3.21903
RightToes  6.35937e-011 1.2921e-014 -6.02303e-014
Spine  13.637 -0.805857 4.72526
Spine1  -2.01964 2.25428 -4.36605
HEad  12.9969 32.3911 -2.00027
LeftShoulder1  3.18954 -9.63785 -18.3197
LeftArm  44.49 -20.9786 -69.9553
LeftForeArm  26.4824 -3.09091 -18.198
LeftHand  0.0051935 7.19513 2.6274
RightShoulder  3.03009 7.07122 23.1098
RightArm  -2.36816 32.5105 92.2951
RightForeArm  119.195 -3.5465 6.31295
RightHand  1.47986 -19.2587 -12.6982
LeftUpLeg  -9.60898 -16.023 -8.45652
LeftLeg  41.9174 3.43558 3.70955
LeftFoot  -0.449289 0.198044 -2.04939
LeftToes  4.52251e-011 4.07896e-011 -5.42348e-012
873
root  52.1723 39.7339 5.99024 -178.586 56.2577 -170.231
RightUpLeg  -83.2141 -11.5748 58.8171
RightLeg  129.678 4.52428 -4.47555
RightFoot  -35.409 0.230903 2.21713
RightToes  6.35937e-011 1.2921e-014 -6.02303e-014
Spine  14.1119 -0.845086 4.7976
Spine1  -2.03241 2.14149 -4.37059
HEad  16.0509 34.0233 0.723239
LeftShoulder1  3.25573 -9.98346 -18.164
LeftArm  31.9325 -21.4729 -70.3618
LeftForeArm  37.0845 0.183058 -17.8581
LeftHand  0.00721015 7.3589 2.58004
RightShoulder  3.01604 7.00507 23.1635
RightArm  -2.1946 32.2712 92.8251
RightForeArm  119.447 -3.54965 6.40292
RightHand  1.41055 -19.3117 -12.1033
LeftUpLeg  -10.8744 -15.6452 -7.15112
LeftLeg  44.7252 1.76246 2.29762
LeftFoot  1.50927 0.0609013 -0.622049
LeftToes  4.52251e-011 4.07896e-011 -5.42348e-012
874
root  52.9975 39.9393 5.64415 -178.815 56.3743 -170.032
RightUpLeg  -81.6159 -11.1069 58.1145
RightLeg  129.839 5.79689 -5.85356
RightFoot  -35.1271 0.187919 2.03063
RightToes  6.35937e-011 1.2921e-014 -6.02303e-014
Spine  15.0365 -0.870496 4.08291
Spine1  -1.77559 1.95621 -4.00003
HEad  17.2113 36.6123 2.2228
LeftShoulder1  3.18502 -9.85052 -17.8505
LeftArm  31.6695 -20.815 -69.7972
LeftForeArm  35.606 0.302127 -17.9103
LeftHand  -0.000297298 7.0238 2.46702
RightShoulder  3.03144 6.99264 23.3594
RightArm  -2.22464 31.9524 93.7768
RightForeArm  121.406 -3.42488 6.18141
RightHand  1.42129 -19.4519 -12.0722
LeftUpLeg  -11.8267 -15.8187 -6.8133
LeftLeg  43.2994 2.60219 3.04426
LeftFoot  -1.04893 0.0801399 -0.81979
LeftToes  4.52251e-011 4.07896e-011 -5.42348e-012
875
root  53.7527 39.9116 5.52055 -177.916 55.3193 -169.787
RightUpLeg  -81.3347 -10.7451 58.195
RightLeg  128.913 5.95444 -6.23589
RightFoot  -34.2193 0.300279 2.63727
RightToes  6.35937e-011 1.2921e-014 -6.02303e-014
Spine  16.1459 -0.926198 3.2215
Spine1  -1.8367 1.4652 -3.18827
HEad  16.4864 38.7435 2.21202
LeftShoulder1  3.1507 -9.93487 -17.4016
LeftArm  33.3467 -19.7405 -69.3868
LeftForeArm  32.5128 -0.00721167 -18.0608
LeftHand  -0.000831691 6.75285 2.7627
RightShoulder  3.00242 6.82074 23.5836
RightArm  -1.70134 31.6176 93.9374
RightForeArm  121.919 -3.4742 6.62716
RightHand  1.42485 -19.5019 -12.0592
LeftUpLeg  -13.7163 -17.0052 -5.77465
LeftLeg  37.746 4.77874 4.34602
LeftFoot  -4.5876 0.0484565 -0.353165
LeftToes  4.52251e-011 4.07896e-011 -5.42348e-012
876
root  54.449 39.473 5.41077 -176.856 53.7974 -169.85
RightUpLeg  -81.7878 -10.5386 58.2122
RightLeg  127.696 4.8136 -5.16795
RightFoot  -33.0705 0.424861 3.38742
RightToes  6.35937e-011 1.2921e-014 -6.02303e-014
Spine  17.238 -0.90722 2.56162
Spine1  -1.69899 1.09164 -2.31651
HEad  13.309 39.45 -0.828076
LeftShoulder1  3.12861 -10.2047 -16.7059
LeftArm  32.9675 -19.6881 -69.818
LeftForeArm  31.8272 0.264858 -18.0729
LeftHand  0.00295543 6.62962 3.27319
RightShoulder  2.94965 6.71289 23.3627
RightArm  -0.763191 31.9036 93.8807
RightForeArm  120.088 -3.65779 7.25111
RightHand  1.42435 -19.3351 -12.1929
LeftUpLeg  -16.2302 -18.2087 -4.909
LeftLeg  31.6281 9.92269 6.88796
LeftFoot  -9.40842 0.079278 -1.35134
LeftToes  4.52251e-011 4.07896e-011 -5.42348e-012
877
root  55.1552 38.4186 5.05209 -176.706 52.8164 -170.899
RightUpLeg  -82.3851 -10.5475 57.736
RightLeg  127.095 3.65208 -3.86932
RightFoot  -33.0791 0.412605 3.32255
RightToes  6.35937e-011 1.2921e-014 -6.02303e-014
Spine  17.8043 -0.810746 2.31903
Spine1  -1.32355 1.22535 -2.22575
HEad  8.43923 39.2572 -5.35193
LeftShoulder1  3.0218 -10.2751 -15.7165
LeftArm  28.8956 -20.5623 -70.8918
LeftForeArm  35.1977 1.51317 -17.7858
LeftHand  0.00872151 6.81023 3.38851
RightShoulder  2.92371 6.66774 23.2276
RightArm  0.242484 32.4089 93.589
RightForeArm  119.392 -3.77769 7.80012
RightHand  1.42982 -19.2983 -12.2671
LeftUpLeg  -18.8554 -19.0914 -5.43096
LeftLeg  28.3443 16.0464 9.51764
LeftFoot  -9.22043 0.0459581 0.510669
LeftToes  4.52251e-011 4.07896e-011 -5.42348e-012
878
root  55.8778 37.0223 4.41614 -177.605 52.232 -172.267
RightUpLeg  -82.7117 -11.8262 56.7402
RightLeg  126.863 3.17544 -3.31716
RightFoot  -33.6622 0.189129 2.12164
RightToes  6.35937e-011 1.2921e-014 -6.02303e-014
Spine  18.3657 -0.945594 2.48771
Spine1  -1.4057 1.67805 -2.61864
HEad  4.29377 38.7218 -9.05952
LeftShoulder1  2.88856 -9.82878 -15.4356
LeftArm  25.4081 -22.2217 -71.9045
LeftForeArm  40.0389 2.42433 -17.3946
LeftHand  0.0114657 7.095 3.12821
RightShoulder  2.98826 6.84526 23.3601
RightArm  1.28908 32.6287 93.0271
RightForeArm  119.27 -3.90716 8.57609
RightHand  1.58878 -19.9996 -12.9025
LeftUpLeg  -22.425 -18.3009 -7.8648
LeftLeg  34.5837 15.1209 11.3062
LeftFoot  -6.08235 -0.487323 11.3708
LeftToes  4.52251e-011 4.07896e-011 -5.42348e-012
879
root  56.5704 35.4446 3.78552 179.424 50.8759 -173.909
RightUpLeg  -83.0303 -15.0665 57.4786
RightLeg  126.781 5.81399 -6.57868
RightFoot  -34.3678 -0.212034 0.109415
RightToes  6.35937e-011 1.2921e-014 -6.02303e-014
Spine  19.6447 -1.311 2.87973
Spine1  -0.392986 1.74595 -3.29424
HEad  -2.75312 38.6818 -13.5604
LeftShoulder1  2.8286 -9.25757 -16.0087
LeftArm  29.9313 -25.3464 -72.4006
LeftForeArm  39.4175 1.2352 -17.647
LeftHand  0.0194944 7.72401 2.85809
RightShoulder  2.99061 6.72241 23.7657
RightArm  1.04372 33.5673 93.0101
RightForeArm  120.685 -3.74101 7.93738
RightHand  1.76406 -20.3177 -13.9294
LeftUpLeg  -25.2459 -19.0343 -10.7912
LeftLeg  46.9818 12.3651 14.2329
LeftFoot  -12.1875 0.144987 9.66016
LeftToes  4.52251e-011 4.07896e-011 -5.42348e-012
880
root  57.4684 34.5456 3.17544 178.408 50.9978 -174.178
RightUpLeg  -81.451 -15.7811 58.9776
RightLeg  125.844 8.78004 -10.5155
RightFoot  -33.9764 -0.30646 -0.374268
RightToes  6.35937e-011 1.2921e-014 -6.02303e-014
Spine  19.2882 -0.839486 4.19614
Spine1  0.428352 2.69954 -5.06849
HEad  -6.4077 38.9563 -14.7541
LeftShoulder1  2.78812 -9.13847 -15.8892
LeftArm  31.1077 -25.7873 -72.1576
LeftForeArm  39.3662 0.903334 -17.6937
LeftHand  0.0158572 7.70182 2.70839
RightShoulder  3.19547 7.32583 24.0188
RightArm  0.488773 34.5574 92.8601
RightForeArm  121.552 -3.5887 7.23281
RightHand  1.90912 -20.5068 -14.8142
LeftUpLeg  -25.7428 -17.6622 -12.1763
LeftLeg  53.7716 10.6718 15.6839
LeftFoot  -17.3719 0.588295 9.16058
LeftToes  4.52251e-011 4.07896e-011 -5.42348e-012
